<svg width="27" height="27" viewBox="0 0 27 27" fill="none" xmlns="http://www.w3.org/2000/svg">
<path d="M6.4517 1.89799C3.94681 1.89799 1.89724 3.94756 1.89724 6.45245V20.5476C1.89724 23.0525 3.94681 25.1021 6.4517 25.1021H20.5468C23.0517 25.1021 25.1013 23.0525 25.1013 20.5476V6.45245C25.1013 3.94756 23.0517 1.89799 20.5468 1.89799H6.4517ZM6.4517 4.00816H20.5468C21.9196 4.00816 22.9915 5.07965 22.9915 6.45245V20.5476C22.9915 21.9204 21.9196 22.9923 20.5468 22.9923H6.4517C5.0789 22.9923 4.00742 21.9204 4.00742 20.5476V6.45245C4.00742 5.07965 5.0789 4.00816 6.4517 4.00816ZM20.3829 6.24275C20.1426 6.24088 19.9089 6.32111 19.7204 6.47017C19.6118 6.55608 19.5211 6.66255 19.4536 6.7835C19.3861 6.90445 19.3431 7.03751 19.3271 7.17508C19.311 7.31265 19.3222 7.45203 19.36 7.58528C19.3978 7.71852 19.4615 7.84302 19.5474 7.95166C19.6333 8.0603 19.7398 8.15095 19.8607 8.21844C19.9817 8.28593 20.1147 8.32894 20.2523 8.34501C20.3899 8.36107 20.5292 8.34989 20.6625 8.31208C20.7957 8.27428 20.9202 8.21061 21.0289 8.12469C21.1375 8.03878 21.2282 7.93231 21.2956 7.81136C21.3631 7.69041 21.4061 7.55735 21.4222 7.41978C21.4383 7.28221 21.4271 7.14283 21.3893 7.00958C21.3515 6.87633 21.2878 6.75184 21.2019 6.6432C21.104 6.51944 20.9796 6.41922 20.8379 6.34991C20.6961 6.28061 20.5407 6.24399 20.3829 6.24275ZM13.4463 7.11739C9.87532 7.11739 6.95803 10.0351 6.95803 13.6061C6.95803 17.1771 9.87532 20.0944 13.4463 20.0944C17.0173 20.0944 19.9346 17.1771 19.9346 13.6061C19.9346 10.0351 17.0173 7.11739 13.4463 7.11739ZM13.4463 9.22592C15.8774 9.22592 17.8249 11.1751 17.8249 13.6061C17.8249 16.0371 15.8774 17.9847 13.4463 17.9847C11.0153 17.9847 9.06779 16.0371 9.06779 13.6061C9.06779 11.1751 11.0153 9.22592 13.4463 9.22592Z" fill="#F47D31"/>
</svg>
