<svg width="18" height="16" viewBox="0 0 18 16" fill="none" xmlns="http://www.w3.org/2000/svg">
<path d="M16.1498 3.97462C16.1612 4.14905 16.1612 4.32352 16.1612 4.49794C16.1612 9.8182 12.4493 15.9484 5.66501 15.9484C3.57488 15.9484 1.63326 15.288 0 14.1418C0.296967 14.1791 0.582472 14.1916 0.890865 14.1916C2.61546 14.1916 4.20306 13.5562 5.47084 12.4722C3.849 12.4348 2.48985 11.276 2.02157 9.68117C2.25001 9.71852 2.47842 9.74345 2.7183 9.74345C3.04951 9.74345 3.38075 9.69359 3.68911 9.60642C1.99875 9.2326 0.730938 7.61286 0.730938 5.65669V5.60687C1.22204 5.9059 1.79315 6.09279 2.39844 6.11768C1.40478 5.39501 0.75379 4.16151 0.75379 2.76602C0.75379 2.01845 0.936498 1.33317 1.25632 0.735102C3.07232 3.1772 5.80205 4.77201 8.86294 4.94648C8.80585 4.64744 8.77157 4.33598 8.77157 4.02448C8.77157 1.80663 10.4163 0 12.4607 0C13.5229 0 14.4822 0.485926 15.1561 1.27089C15.9899 1.09646 16.7894 0.760032 17.4975 0.299034C17.2234 1.23353 16.6409 2.01849 15.8757 2.51684C16.6181 2.42967 17.3376 2.20535 18 1.89388C17.4976 2.69127 16.8694 3.40145 16.1498 3.97462Z" fill="#3C3C3C"/>
</svg>
