<svg width="10" height="10" viewBox="0 0 10 10" fill="none" xmlns="http://www.w3.org/2000/svg">
<mask id="mask0_366_2550" style="mask-type:luminance" maskUnits="userSpaceOnUse" x="-1" y="-1" width="12" height="12">
<path d="M10.9999 -0.999973V10.9995H-0.999574V-0.999973H10.9999Z" fill="white"/>
</mask>
<g mask="url(#mask0_366_2550)">
<path d="M4.99977 0C2.2374 0 0 2.2374 0 4.99977C0 7.76214 2.2374 9.99953 4.99977 9.99953C7.76214 9.99953 9.99953 7.76214 9.99953 4.99977C9.99953 2.2374 7.76214 0 4.99977 0ZM4.99977 8.99958C2.79487 8.99958 0.999953 7.20466 0.999953 4.99977C0.999953 2.79487 2.79487 0.999953 4.99977 0.999953C7.20466 0.999953 8.99958 2.79487 8.99958 4.99977C8.99958 7.20466 7.20466 8.99958 4.99977 8.99958ZM4.03981 4.43229C4.06731 4.2698 4.11731 4.12481 4.1898 3.99731C4.2623 3.86982 4.3623 3.76732 4.48479 3.68983C4.60228 3.61733 4.74978 3.57733 4.93227 3.57483C5.05226 3.57733 5.16226 3.59733 5.25725 3.63983C5.35975 3.68483 5.44474 3.74482 5.51724 3.81982C5.58974 3.89482 5.64474 3.98481 5.68473 4.08481C5.72473 4.1848 5.74723 4.2923 5.75223 4.40479H6.64719C6.63969 4.16981 6.59219 3.95482 6.5097 3.75982C6.4272 3.56483 6.3072 3.39734 6.15721 3.25485C6.00722 3.11235 5.82723 3.00486 5.61724 2.92736C5.40725 2.84987 5.17476 2.80987 4.91977 2.80987C4.59478 2.80987 4.3123 2.86487 4.07231 2.97736C3.83232 3.08986 3.63233 3.24235 3.47234 3.43734C3.31234 3.63233 3.19235 3.85732 3.11485 4.11481C3.03736 4.3723 2.99986 4.64478 2.99986 4.93227V5.06976C2.99986 5.35975 3.03986 5.63224 3.11735 5.88972C3.19485 6.14721 3.31484 6.3722 3.47484 6.56469C3.63483 6.75718 3.83482 6.90968 4.07731 7.02217C4.3198 7.13467 4.60228 7.18966 4.92727 7.18966C5.16226 7.18966 5.38225 7.15217 5.58724 7.07467C5.79223 6.99717 5.97222 6.89218 6.12721 6.75718C6.28221 6.62219 6.4072 6.4672 6.4972 6.28721C6.58719 6.10721 6.63969 5.91722 6.64719 5.71223H5.75223C5.74723 5.81723 5.72223 5.91222 5.67723 6.00222C5.63224 6.09222 5.57224 6.16721 5.49724 6.22971C5.42225 6.29221 5.33475 6.3422 5.23476 6.3772C5.13976 6.4097 5.03976 6.4272 4.93227 6.4272C4.75228 6.4222 4.60478 6.3847 4.48479 6.3097C4.3598 6.22971 4.2598 6.12721 4.1873 5.99972C4.11481 5.87223 4.06481 5.72723 4.03731 5.56224C4.00981 5.39725 3.99981 5.23726 3.99981 5.06976V4.93227C3.99981 4.76228 4.01231 4.59478 4.03981 4.43229Z" fill="#3C3C3C"/>
</g>
</svg>
