<svg width="27" height="27" viewBox="0 0 27 27" fill="none" xmlns="http://www.w3.org/2000/svg">
<g clip-path="url(#clip0_366_2540)">
<path d="M26.9939 5.12747C26.0008 5.56874 24.9343 5.86658 23.813 5.99905C24.9563 5.31393 25.8346 4.22888 26.2489 2.93628C25.1782 3.56992 23.9936 4.03229 22.7322 4.27951C21.7214 3.20374 20.282 2.53128 18.6881 2.53128C15.6296 2.53128 13.1515 5.01019 13.1515 8.06874C13.1515 8.50242 13.1996 8.92598 13.2941 9.33098C8.69151 9.09979 4.61119 6.8951 1.87916 3.54461C1.40329 4.36304 1.12992 5.31393 1.12992 6.32895C1.12992 8.25099 2.10782 9.94522 3.5928 10.9391C2.68578 10.9096 1.83191 10.6616 1.0852 10.2464C1.08436 10.2692 1.08436 10.2937 1.08436 10.3156C1.08436 12.9996 2.9929 15.238 5.52665 15.7468C5.06259 15.8725 4.57322 15.9408 4.06782 15.9408C3.71008 15.9408 3.36414 15.9062 3.02665 15.8421C3.73033 18.0409 5.77639 19.6423 8.19877 19.6879C6.30458 21.1729 3.91679 22.0596 1.32229 22.0596C0.875113 22.0596 0.433837 22.0335 0.000999075 21.982C2.45122 23.5514 5.36212 24.4685 8.48986 24.4685C18.6755 24.4685 24.2467 16.0303 24.2467 8.71167C24.2467 8.47205 24.2399 8.23243 24.2298 7.99449C25.3123 7.21403 26.2506 6.23952 26.9939 5.12747Z" fill="#F47D31"/>
</g>
<defs>
<clipPath id="clip0_366_2540">
<rect width="26.3913" height="26.3913" fill="white" transform="scale(1.02305)"/>
</clipPath>
</defs>
</svg>
