<svg width="18" height="17" viewBox="0 0 18 17" fill="none" xmlns="http://www.w3.org/2000/svg">
<path d="M16.7143 0H1.2817C0.574554 0 0 0.54832 0 1.22143V15.7197C0 16.3929 0.574554 16.9412 1.2817 16.9412H16.7143C17.4214 16.9412 18 16.3929 18 15.7197V1.22143C18 0.54832 17.4214 0 16.7143 0ZM5.44018 14.521H2.77232V6.43613H5.4442V14.521H5.44018ZM4.10625 5.33193C3.25045 5.33193 2.55938 4.67773 2.55938 3.87605C2.55938 3.07437 3.25045 2.42017 4.10625 2.42017C4.95804 2.42017 5.65313 3.07437 5.65313 3.87605C5.65313 4.68151 4.96205 5.33193 4.10625 5.33193ZM15.4406 14.521H12.7728V10.5882C12.7728 9.65042 12.7527 8.44412 11.3866 8.44412C9.99643 8.44412 9.78348 9.46513 9.78348 10.5202V14.521H7.11563V6.43613H9.675V7.54034H9.71116C10.0688 6.90504 10.9406 6.23571 12.2384 6.23571C14.9384 6.23571 15.4406 7.91092 15.4406 10.0891V14.521Z" fill="#3C3C3C"/>
</svg>
