<svg width="27" height="27" viewBox="0 0 27 27" fill="none" xmlns="http://www.w3.org/2000/svg">
<path d="M15.0321 10.3148V15.512H17.9654C18.6665 15.512 19.0819 14.9315 19.231 14.2464L19.8111 11.5804C19.9602 10.8953 19.2466 10.3148 18.5455 10.3148H15.0321Z" fill="#F47D31"/>
<path d="M8.43397 10.3148C7.73282 10.3148 7.16836 10.8793 7.16836 11.5804V14.2464C7.16836 14.9475 7.73282 15.512 8.43397 15.512H10.929V10.3148H8.43397Z" fill="#F47D31"/>
<path d="M10.3324 4.77526V24.9035C10.3324 25.6046 10.8969 26.1691 11.598 26.1691H14.264C14.9651 26.1691 15.5296 25.6046 15.5296 24.9035V8.59557C15.5296 6.70073 15.9563 6.04087 17.8008 6.04087H18.3416C19.0428 6.04087 19.6072 5.47641 19.6072 4.77526V2.10933C19.6072 1.40818 19.0428 0.843719 18.3416 0.843719H14.264C11.5811 0.843719 10.3324 2.48168 10.3324 4.77526Z" fill="#F47D31"/>
</svg>
